{"title":"Papillon.1973.1080p BluRay.DTS.x264-AMIABLE","uid":6423162,"size":11820894783,"categoryP":"video","categoryS":"hd___movies","magnet":"?xt=urn:btih:63314ea221dccade72ebdba5c9c9544bee1d1309&amp;dn=Papillon.1973.1080p+BluRay.DTS.x264-AMIABLE&amp;tr=udp%3A%2F%2Ftracker.openbittorrent.com%3A80&amp;tr=udp%3A%2F%2Fopen.demonii.com%3A1337&amp;tr=udp%3A%2F%2Ftracker.coppersurfer.tk%3A6969&amp;tr=udp%3A%2F%2Fexodus.desync.com%3A6969","seeders":2,"leechers":1,"uploader":"Wind8Water","files":-1,"time":1306370777,"description":"'Papillon' is the forceful portrait of a defiant man, who survives harrowing\nyears of his life in small solitary cells, suffering the worst type of\nbrutality and despair... It is the amazing true life story of a man of\ncharacter called Henri Charriere, a Frenchman sentenced to life at Devil's\nisland for a murder he did not commit... Henri gains his nick name 'Papillon'\nfor the large butterfly (symbolic of freedom) tattooed on his chest...\n\nVery memorable, unforgettable performances, shocking action scenes an\npsychological thrills and twists.\n &lt;a href=&quot;\nhttp://en.wikipedia.org/wiki/Papillon_%28book%29&quot; rel=&quot;nofollow&quot; target=&quot;_NEW&quot;&gt;\nhttp://en.wikipedia.org/wiki/Papillon_%28book%29&lt;/a&gt;\n &lt;a href=&quot;\nhttp://en.wikipedia.org/wiki/Papillon_%28film%29&quot; rel=&quot;nofollow&quot; target=&quot;_NEW&quot;&gt;\nhttp://en.wikipedia.org/wiki/Papillon_%28film%29&lt;/a&gt;\n &lt;a href=&quot;\nhttp://www.imdb.com/title/tt0070511/&quot; rel=&quot;nofollow&quot; target=&quot;_NEW&quot;&gt;\nhttp://www.imdb.com/title/tt0070511/&lt;/a&gt;\n\n\nR E L E A S E    I N F O\n                   \n           __ .---.\n       __ /  `  .-.7,--.\n      /  `. .-''. -,  , \\\n      '--.-    -;   | ) /\n      ,` /   \\ ,_) /   '-.            \n     /  (  (  |   /  .' ) \\           AMIABLE proudly presents:\n     '.  `--,/   .---' ,-.|           \n       `--.  / '-, -' .'              Papillon.1973.1080p.BluRay.X264-AMIABLE\n      .==,=; `-,.;--'                 \n     / ,'  _;--;|                     Date .....: 20th May 2011\n    /_...=' you are my                Runtime ..: 02:30:47\n               || .==,=.              Size .....: 10.93gb\n               ||/    '.\\             Video ....: 1920x808 (X264 @ 23.976fps)\n              ,||`'=...__\\            Bitrate ..: 8870kbps\n               ||                     Audio ....: DTS 1509kbps\n      sweetest downfall..             Source ...: Retail Region A Blu-Ray\n               ||,                    Lang .....: English \n               ||                     Subs .....: English / French / Spanish\n               ||                                 / + Romanian\n              ,||                     IMDB .....: \n               ||                          &lt;a href=&quot; http://www.imdb.com/title/tt0070511/&quot; rel=&quot;nofollow&quot; target=&quot;_NEW&quot;&gt; http://www.imdb.com/title/tt0070511/&lt;/a&gt;\n               ||                     Rating ...: 8.0/10 (31,832 votes)\n       I loved you first              Screens ..: Opening Week - (USA)\n               ||                                  (December 16, 1973)\n               ||                     Genre ....: Biography | Crime | Drama\n               ||,                    Director .: Franklin J. Schaffner\n               ||                     Cast .....: Steve McQueen, Dustin\n                                                   Hoffman, Victor Jory\n\n\n\n\n                                          Tomorrow's just your future yesterday!\n\nScreenshots &amp; Sample included\n\n\nFor other esteemed movies please visit:\n &lt;a href=&quot;\nhttp://thepiratebay.se/user/Wind8Water/&quot; rel=&quot;nofollow&quot; target=&quot;_NEW&quot;&gt;\nhttp://thepiratebay.se/user/Wind8Water/&lt;/a&gt;\n\n\nMedia Info\n\nFormat                           : Matroska\nFile size                        : 10.9 GiB\nDuration                         : 2h 30mn\nOverall bit rate                 : 10.4 Mbps\nWriting application              : x264.exe\nWriting library                  : mkv2rls v1.4 (date: 2011 mar 29)\n\nVideo\nFormat                           : AVC\nFormat profile                   : &lt;a class=&quot;__cf_email__&quot; href=&quot;/cdn-cgi/l/email-protection&quot; data-cfemail=&quot;83cbeae4ebc3cfb7adb2&quot;&gt;[email&amp;#160;protected]&lt;/a&gt;&lt;script cf-hash='f9e31' type=&quot;text/javascript&quot;&gt;\n/* &lt;![CDATA[ */!function(){try{var t=&quot;currentScript&quot;in document?document.currentScript:function(){for(var t=document.getElementsByTagName(&quot;script&quot;),e=t.length;e--;)if(t[e].getAttribute(&quot;cf-hash&quot;))return t[e]}();if(t&amp;&amp;t.previousSibling){var e,r,n,i,c=t.previousSibling,a=c.getAttribute(&quot;data-cfemail&quot;);if(a){for(e=&quot;&quot;,r=parseInt(a.substr(0,2),16),n=2;a.length-n;n+=2)i=parseInt(a.substr(n,2),16)^r,e+=String.fromCharCode(i);e=document.createTextNode(e),c.parentNode.replaceChild(e,c)}}}catch(u){}}();/* ]]&gt; */&lt;/script&gt;\nFormat settings, CABAC           : Yes\nFormat settings, ReFrames        : 5 frames\nBit rate                         : 8 870 Kbps\nWidth                            : 1 920 pixels\nHeight                           : 808 pixels\nDisplay aspect ratio             : 2.35:1\nFrame rate                       : 23.976 fps\nColor space                      : YUV\nChroma subsampling               : 4:2:0\nBit depth                        : 8 bits\nScan type                        : Progressive\nBits/(Pixel*Frame)               : 0.238\nStream size                      : 9.13 GiB (83%)\nWriting library                  : x264 core 115 r1995 c1e60b9\nLanguage                         : English\n\nAudio\nFormat                           : DTS\nBit rate mode                    : Constant\nBit rate                         : 1 510 Kbps\nChannel(s)                       : 6 channels\nChannel positions                : Front: L C R, Side: L R, LFE\nSampling rate                    : 48.0 KHz\nBit depth                        : 24 bits\nCompression mode                 : Lossy\nStream size                      : 1.59 GiB (15%)\nLanguage                         : English\n\n\n\n                                Enjoy &amp; Please Seed  !\t\t","torrent":{"xt":"urn:btih:63314ea221dccade72ebdba5c9c9544bee1d1309","amp;dn":"Papillon.1973.1080p+BluRay.DTS.x264-AMIABLE","amp;tr":["udp%3A%2F%2Ftracker.openbittorrent.com%3A80","udp%3A%2F%2Fopen.demonii.com%3A1337","udp%3A%2F%2Ftracker.coppersurfer.tk%3A6969","udp%3A%2F%2Fexodus.desync.com%3A6969"],"infoHash":"63314ea221dccade72ebdba5c9c9544bee1d1309","infoHashBuffer":{"type":"Buffer","data":[99,49,78,162,33,220,202,222,114,235,219,165,201,201,84,75,238,29,19,9]},"announce":[],"urlList":[]}}